# File created by Blade
# Date/Time:  Thu Jan 22 19:24:19 2015
# Frame Rate: 120.000 fps
#------------------------------------------------------
:FULLY-SPECIFIED
:DEGREES
2369
root 6.138576 31.999961 -4.021228 9.096504 6.097741 7.660099
RightUpLeg -22.767173 2.396728 3.414030
RightLeg 36.762547 -0.000000 -0.000000
RightFoot -26.081749 -13.258014 -2.630054
RightToeBase 2.966081 -0.000000 -0.000000
LeftUpLeg -0.536500 -11.260205 -21.219289
LeftLeg -2.882390 -0.000000 0.000000
LeftFoot -4.084735 1.069189 -2.481829
LeftToeBase 2.985986 -0.000000 -0.000000
Spine -7.120169 -3.883338 34.972560
RightShoulder -11.088153 -15.273557 -0.477612
RightArm 21.605618 -0.285767 64.544339
RightForeArm -8.731722 -0.000000 14.275484
RightHand 14.628902 -0.000000 0.788672
RightHandThumb1 -24.326973 -0.000000 -32.862282
LeftShoulder -23.738536 -16.484302 62.405311
LeftArm 62.807519 -51.905424 -31.613406
LeftForeArm 0.843668 0.000000 18.275483
LeftHand -0.374638 0.000000 5.805215
LeftHandThumb1 -26.253704 0.000000 33.147579
Head -9.176179 4.335761 44.389692
2370
root 6.131645 32.000421 -4.021607 9.093244 6.097280 7.656964
RightUpLeg -22.762368 2.366823 3.435424
RightLeg 36.758463 -0.000000 -0.000000
RightFoot -26.097522 -13.234262 -2.621527
RightToeBase 2.887985 -0.000000 -0.000000
LeftUpLeg -0.526677 -11.249465 -21.207190
LeftLeg -2.899458 -0.000000 0.000000
LeftFoot -4.091162 1.059085 -2.479636
LeftToeBase 2.970369 -0.000000 -0.000000
Spine -7.130621 -3.881986 34.951309
RightShoulder -11.099383 -15.300322 -0.479469
RightArm 21.646032 -0.186414 64.596937
RightForeArm -8.882664 -0.000000 14.242217
RightHand 14.698693 -0.000000 0.770480
RightHandThumb1 -24.326973 -0.000000 -32.862282
LeftShoulder -23.721513 -16.443382 62.377332
LeftArm 62.603508 -51.844654 -31.423697
LeftForeArm 1.310952 0.000000 18.291267
LeftHand -0.441782 -0.000000 5.948943
LeftHandThumb1 -26.253704 0.000000 33.147579
Head -9.186366 4.283569 44.298337
2371
root 6.125855 32.001074 -4.021391 9.078388 6.109256 7.652068
RightUpLeg -22.738161 2.334538 3.457340
RightLeg 36.747399 -0.000000 -0.000000
RightFoot -26.129725 -13.228476 -2.628812
RightToeBase 2.907249 -0.000000 -0.000000
LeftUpLeg -0.505605 -11.244587 -21.197607
LeftLeg -2.906332 -0.000000 0.000000
LeftFoot -4.105990 1.062080 -2.483995
LeftToeBase 3.070703 -0.000000 -0.000000
Spine -7.134641 -3.890648 34.940258
RightShoulder -11.095101 -15.262569 -0.496803
RightArm 21.611442 -0.104288 64.642915
RightForeArm -8.983944 -0.000000 14.231202
RightHand 14.700738 0.000000 0.787070
RightHandThumb1 -24.326973 -0.000000 -32.862282
LeftShoulder -23.703605 -16.392114 62.338139
LeftArm 62.421347 -51.800583 -31.237075
LeftForeArm 1.844828 0.000000 18.280770
LeftHand -0.567676 -0.000000 6.061128
LeftHandThumb1 -26.253704 0.000000 33.147579
Head -9.212499 4.234848 44.218641
2372
root 6.121119 32.002533 -4.023144 9.068683 6.129501 7.656160
RightUpLeg -22.724158 2.303887 3.467837
RightLeg 36.738534 -0.000000 -0.000000
RightFoot -26.152063 -13.224185 -2.606658
RightToeBase 2.850591 -0.000000 -0.000000
LeftUpLeg -0.493753 -11.244685 -21.192773
LeftLeg -2.915353 -0.000000 0.000000
LeftFoot -4.090907 1.047339 -2.465296
LeftToeBase 3.069391 -0.000000 -0.000000
Spine -7.139973 -3.885527 34.919830
RightShoulder -11.104634 -15.214127 -0.510585
RightArm 21.574475 -0.125698 64.624366
RightForeArm -8.996903 0.000000 14.209969
RightHand 14.675033 -0.000000 0.847355
RightHandThumb1 -24.326973 -0.000000 -32.862282
LeftShoulder -23.689568 -16.355510 62.298584
LeftArm 62.199995 -51.728556 -30.978478
LeftForeArm 2.415709 0.000000 18.246458
LeftHand -0.554869 -0.000000 6.247442
LeftHandThumb1 -26.253704 0.000000 33.147579
Head -9.250655 4.164161 44.154607
2373
root 6.116428 32.003267 -4.023391 9.054454 6.167149 7.655638
RightUpLeg -22.703962 2.265606 3.483468
RightLeg 36.736412 -0.000000 -0.000000
RightFoot -26.182432 -13.230771 -2.597315
RightToeBase 2.789365 -0.000000 -0.000000
LeftUpLeg -0.477696 -11.239693 -21.186803
LeftLeg -2.899670 -0.000000 0.000000
LeftFoot -4.110932 1.019922 -2.482359
LeftToeBase 3.141269 -0.000000 -0.000000
Spine -7.159677 -3.888988 34.910940
RightShoulder -11.106631 -15.265517 -0.527815
RightArm 21.579432 -0.142011 64.607931
RightForeArm -9.000327 -0.000000 14.243534
RightHand 14.589185 -0.000000 0.878497
RightHandThumb1 -24.326973 -0.000000 -32.862282
LeftShoulder -23.665471 -16.318205 62.252957
LeftArm 61.910619 -51.635619 -30.625518
LeftForeArm 2.937709 0.000000 18.208550
LeftHand -0.560497 -0.000000 6.438888
LeftHandThumb1 -26.253704 0.000000 33.147579
Head -9.278756 4.061103 44.090741
2374
root 6.114360 32.005142 -4.023986 9.040734 6.222797 7.659129
RightUpLeg -22.682825 2.198046 3.494043
RightLeg 36.738061 -0.000000 -0.000000
RightFoot -26.210994 -13.234943 -2.599216
RightToeBase 2.719946 -0.000000 -0.000000
LeftUpLeg -0.460358 -11.238022 -21.183110
LeftLeg -2.893066 -0.000000 0.000000
LeftFoot -4.078666 0.973001 -2.477818
LeftToeBase 3.032547 -0.000000 -0.000000
Spine -7.180954 -3.898947 34.912748
RightShoulder -11.127426 -15.319449 -0.536079
RightArm 21.609374 -0.144813 64.575476
RightForeArm -9.008605 -0.000000 14.249141
RightHand 14.562386 -0.000000 0.872486
RightHandThumb1 -24.326973 -0.000000 -32.862282
LeftShoulder -23.654823 -16.271050 62.203559
LeftArm 61.644709 -51.548135 -30.306455
LeftForeArm 3.585850 -0.000000 18.184096
LeftHand -0.554720 -0.000000 6.781432
LeftHandThumb1 -26.253704 0.000000 33.147579
Head -9.327908 3.966422 44.016662
2375
root 6.112249 32.006404 -4.023944 9.029521 6.277546 7.669447
RightUpLeg -22.662565 2.136062 3.497569
RightLeg 36.734146 -0.000000 -0.000000
RightFoot -26.237596 -13.217162 -2.574128
RightToeBase 2.628379 -0.000000 -0.000000
LeftUpLeg -0.446409 -11.216035 -21.186626
LeftLeg -2.874870 -0.000000 0.000000
LeftFoot -4.079156 0.900819 -2.438398
LeftToeBase 3.138179 -0.000000 -0.000000
Spine -7.202058 -3.900195 34.904764
RightShoulder -11.148122 -15.342788 -0.535884
RightArm 21.612521 -0.162380 64.525419
RightForeArm -8.994832 0.000000 14.237710
RightHand 14.535773 -0.000000 0.877551
RightHandThumb1 -24.326973 -0.000000 -32.862282
LeftShoulder -23.646475 -16.243724 62.164710
LeftArm 61.377452 -51.458505 -29.988899
LeftForeArm 4.291789 -0.000000 18.162095
LeftHand -0.607926 -0.000000 7.042889
LeftHandThumb1 -26.253704 0.000000 33.147579
Head -9.387098 3.869057 43.953704
2376
root 6.109121 32.007526 -4.024864 9.020614 6.348428 7.669901
RightUpLeg -22.647416 2.067101 3.515305
RightLeg 36.731690 -0.000000 -0.000000
RightFoot -26.256538 -13.228061 -2.586642
RightToeBase 2.552442 -0.000000 -0.000000
LeftUpLeg -0.432673 -11.233967 -21.178084
LeftLeg -2.859173 -0.000000 0.000000
LeftFoot -4.076379 0.862965 -2.439850
LeftToeBase 3.085999 -0.000000 -0.000000
Spine -7.229596 -3.909647 34.908773
RightShoulder -11.158082 -15.379823 -0.532550
RightArm 21.609511 -0.132253 64.497487
RightForeArm -9.025348 0.000000 14.241089
RightHand 14.540866 0.000000 0.805733
RightHandThumb1 -24.326973 -0.000000 -32.862282
LeftShoulder -23.651760 -16.214191 62.134830
LeftArm 61.151623 -51.369083 -29.706368
LeftForeArm 5.108776 -0.000000 18.119426
LeftHand -0.647728 -0.000000 7.227685
LeftHandThumb1 -26.253704 0.000000 33.147579
Head -9.448500 3.814326 43.901024
2377
root 6.107278 32.008365 -4.023862 8.997989 6.418595 7.666674
RightUpLeg -22.612407 1.994341 3.536276
RightLeg 36.722540 -0.000000 -0.000000
RightFoot -26.270055 -13.234996 -2.596483
RightToeBase 2.497689 -0.000000 -0.000000
LeftUpLeg -0.395088 -11.261298 -21.173251
LeftLeg -2.856528 -0.000000 0.000000
LeftFoot -4.078402 0.850853 -2.410770
LeftToeBase 3.162134 -0.000000 -0.000000
Spine -7.247178 -3.910576 34.919411
RightShoulder -11.177341 -15.390285 -0.532616
RightArm 21.580363 -0.093408 64.470555
RightForeArm -9.042310 0.000000 14.229245
RightHand 14.564371 -0.000000 0.798628
RightHandThumb1 -24.326973 -0.000000 -32.862282
LeftShoulder -23.641953 -16.143122 62.083007
LeftArm 60.927725 -51.321302 -29.408580
LeftForeArm 5.989296 -0.000000 18.088918
LeftHand -0.723485 -0.000000 7.415228
LeftHandThumb1 -26.253704 0.000000 33.147579
Head -9.510239 3.717317 43.853350
2378
root 6.104396 32.008558 -4.022357 8.985648 6.493724 7.662627
RightUpLeg -22.584238 1.935021 3.560712
RightLeg 36.709187 -0.000000 -0.000000
RightFoot -26.277110 -13.278174 -2.624424
RightToeBase 2.433331 -0.000000 -0.000000
LeftUpLeg -0.361964 -11.334925 -21.161668
LeftLeg -2.862774 -0.000000 0.000000
LeftFoot -4.072391 0.877795 -2.442960
LeftToeBase 3.095326 -0.000000 -0.000000
Spine -7.282609 -3.905101 34.928792
RightShoulder -11.202650 -15.426326 -0.519622
RightArm 21.561623 -0.050909 64.433449
RightForeArm -9.048674 -0.000000 14.233521
RightHand 14.561541 -0.000000 0.814863
RightHandThumb1 -24.326973 -0.000000 -32.862282
LeftShoulder -23.638826 -16.130290 62.055416
LeftArm 60.593784 -51.183584 -28.980706
LeftForeArm 6.818665 -0.000000 18.051084
LeftHand -0.716413 -0.000000 7.684006
LeftHandThumb1 -26.253704 0.000000 33.147579
Head -9.566897 3.618891 43.813783
2379
root 6.104294 32.009029 -4.022256 8.975261 6.562636 7.667904
RightUpLeg -22.563082 1.881890 3.568196
RightLeg 36.705868 -0.000000 -0.000000
RightFoot -26.299050 -13.296437 -2.624751
RightToeBase 2.357535 -0.000000 -0.000000
LeftUpLeg -0.337883 -11.311660 -21.162943
LeftLeg -2.858632 -0.000000 0.000000
LeftFoot -4.067575 0.799707 -2.438482
LeftToeBase 3.176079 -0.000000 -0.000000
Spine -7.306677 -3.889922 34.936008
RightShoulder -11.231262 -15.439374 -0.516132
RightArm 21.531995 -0.000230 64.411748
RightForeArm -9.075236 -0.000000 14.225669
RightHand 14.552296 -0.000000 0.782912
RightHandThumb1 -24.326973 -0.000000 -32.862282
LeftShoulder -23.646153 -16.096414 62.008911
LeftArm 60.252066 -51.055579 -28.526544
LeftForeArm 7.621065 -0.000000 18.036250
LeftHand -0.725568 -0.000000 8.029397
LeftHandThumb1 -26.253704 0.000000 33.147579
Head -9.638811 3.537759 43.761317
2380
root 6.104025 32.009407 -4.021532 8.970705 6.627920 7.667202
RightUpLeg -22.542277 1.828689 3.583434
RightLeg 36.693015 -0.000000 -0.000000
RightFoot -26.307346 -13.330997 -2.648211
RightToeBase 2.283608 -0.000000 -0.000000
LeftUpLeg -0.310448 -11.305274 -21.157034
LeftLeg -2.872811 -0.000000 0.000000
LeftFoot -4.053153 0.738883 -2.452485
LeftToeBase 3.183080 -0.000000 -0.000000
Spine -7.338294 -3.866691 34.948251
RightShoulder -11.252653 -15.484789 -0.504945
RightArm 21.512792 0.150971 64.425635
RightForeArm -9.152029 -0.000000 14.215918
RightHand 14.643358 -0.000000 0.797739
RightHandThumb1 -24.326973 -0.000000 -32.862282
LeftShoulder -23.663862 -16.063145 61.982789
LeftArm 59.933885 -50.918599 -28.118785
LeftForeArm 8.513120 0.000000 18.051769
LeftHand -0.887252 -0.000000 8.377511
LeftHandThumb1 -26.253704 0.000000 33.147579
Head -9.706472 3.447633 43.723579
2381
root 6.103392 32.009262 -4.020675 8.964353 6.698421 7.660193
RightUpLeg -22.520180 1.785169 3.605279
RightLeg 36.681033 -0.000000 -0.000000
RightFoot -26.318425 -13.373889 -2.663609
RightToeBase 2.210940 -0.000000 -0.000000
LeftUpLeg -0.276258 -11.341096 -21.145005
LeftLeg -2.894030 -0.000000 0.000000
LeftFoot -4.047422 0.734712 -2.452424
LeftToeBase 3.178320 -0.000000 -0.000000
Spine -7.371931 -3.851324 34.970379
RightShoulder -11.273678 -15.481264 -0.502086
RightArm 21.446013 0.314891 64.454466
RightForeArm -9.246903 -0.000000 14.226237
RightHand 14.707690 -0.000000 0.842651
RightHandThumb1 -24.326973 -0.000000 -32.862282
LeftShoulder -23.672580 -15.966646 61.915943
LeftArm 59.682350 -50.850742 -27.746761
LeftForeArm 9.328028 -0.000000 18.040708
LeftHand -0.855763 -0.000000 8.659487
LeftHandThumb1 -26.253704 0.000000 33.147579
Head -9.760191 3.354713 43.676565
